<svg width="100%" height="100%" viewBox="0 0 921 196" version="1.1" xmlns="http://www.w3.org/2000/svg" xmlns:xlink="http://www.w3.org/1999/xlink" xml:space="preserve" xmlns:serif="http://www.serif.com/" style="fill-rule: evenodd; clip-rule: evenodd; stroke-linejoin: round; stroke-miterlimit: 2;"><g><path d="M102,70.48l0,-16.39c0,-19.393 -4.203,-33.223 -12.61,-41.49c-8.407,-8.267 -21.08,-12.397 -38.02,-12.39c-34.247,0 -51.37,17.96 -51.37,53.88c0,17.867 6.14,32.113 18.42,42.74l0.13,0l33.7,29.65c0.75,0.66 8.31,7.28 10.89,15.18c0.676,2.171 1.168,4.396 1.47,6.65c0.214,1.447 0.311,2.908 0.29,4.37c-0.06,3.66 -0.16,9.93 -4.61,13.89c-2.447,2.051 -5.509,3.23 -8.7,3.35c-0.143,-0.012 -0.287,-0.012 -0.43,0l-0.47,0c-0.488,0.001 -0.974,-0.074 -1.44,-0.22c-2.11,-0.46 -6,-1.65 -8.51,-5.12c-1.82,-2.58 -2,-5.27 -2.16,-7.67c-0.38,-6.45 -0.66,-13.1 -0.8,-19.94l0,-11.51l-37.78,0l0,16.38c0,19.44 4.213,33.273 12.64,41.5c8.427,8.227 21.093,12.357 38,12.39c34.253,0 51.377,-17.963 51.37,-53.89c0,-17.86 -6.14,-32.107 -18.42,-42.74l-0.13,0l-33.68,-29.65c-0.75,-0.67 -8.31,-7.28 -10.89,-15.19c-0.677,-2.168 -1.168,-4.389 -1.47,-6.64c-0.214,-1.447 -0.311,-2.908 -0.29,-4.37c0.06,-3.67 0.16,-9.93 4.61,-13.9c2.45,-2.046 5.51,-3.224 8.7,-3.35c0.143,0.015 0.287,0.015 0.43,0l0.47,0c0.489,-0.002 0.976,0.075 1.44,0.23c2.11,0.45 6,1.65 8.51,5.11c1.82,2.58 2,5.27 2.16,7.68c0.38,6.45 0.66,13.09 0.8,19.93l0,11.53l37.75,0Z"></path> <path d="M158.45,3.15l90.38,0l0,32.85l-25.53,0l0,157.3l-39.3,0l0,-157.3l-25.55,0l0,-32.85Z"></path> <path d="M480.38,3.15l42.94,0l32.45,120.85l0,-120.85l38,0l0,190.17l-42.72,0l-32.66,-126.78l0,126.78l-38,0l-0.01,-190.17Z"></path> <path d="M836.92,3.35l83,0l0,36.4l-46.2,0l0,38l39.58,0l0,36.4l-39.56,0l0,42.56l47,0l0,36.4l-83.82,0l0,-189.76Z"></path> <path d="M336.41,3.15l46.94,0l29,190.17l-33.35,0l-3.26,-30.46l-32.6,0l-3.68,30.46l-31.6,0l28.55,-190.17Zm23.59,36l-11.76,93.23l23.76,0l-12,-93.23Z"></path> <path d="M761.05,72.51l0,-12.6c0,-16.987 -2.443,-29.583 -7.33,-37.79c-8.673,-14.747 -21.99,-22.12 -39.95,-22.12c-8.453,-0.118 -16.779,2.082 -24.07,6.36c-7.258,4.356 -13.096,10.729 -16.8,18.34c-4.04,8 -6.06,17.433 -6.06,28.3l0,90.16c0,10.667 2.047,20 6.14,28c3.729,7.624 9.586,14.008 16.86,18.38c7.317,4.3 15.674,6.514 24.16,6.4c12.973,0 23.1,-3.483 30.38,-10.45c5.026,-5 9.07,-10.899 11.92,-17.39c3.192,-7.005 4.823,-14.622 4.78,-22.32l0,-28.33l-36.5,0l0,43.07c-0.017,4.604 -3.128,8.66 -7.57,9.87c-1.035,0.376 -2.129,0.566 -3.23,0.56c-1.263,0.004 -2.513,-0.255 -3.67,-0.76l-0.12,-0.07c-4.016,-1.479 -6.705,-5.32 -6.72,-9.6l0,-119.52c-0.045,-0.292 -0.045,-0.588 0,-0.88l0,-4.37c0.004,-1.871 0.523,-3.705 1.5,-5.3c0.415,-0.844 1.017,-1.583 1.76,-2.16c1.759,-1.66 4.054,-2.639 6.47,-2.76l1.35,0c5.617,0.016 10.234,4.633 10.25,10.25l0,36.73l36.45,0Z"></path></g></svg>